<svg width="10" height="16" viewBox="0 0 10 16" fill="none" xmlns="http://www.w3.org/2000/svg">
<path d="M0.892867 0.894637C0.76833 1.01892 0.669527 1.16654 0.602113 1.32906C0.5347 1.49157 0.5 1.66579 0.5 1.84173C0.5 2.01767 0.5347 2.19188 0.602113 2.3544C0.669527 2.51691 0.76833 2.66454 0.892867 2.78882L6.10522 8.00117L0.892867 13.2135C0.641683 13.4647 0.500569 13.8054 0.500569 14.1606C0.500569 14.5158 0.641683 14.8565 0.892867 15.1077C1.14405 15.3589 1.48473 15.5 1.83996 15.5C2.19518 15.5 2.53586 15.3589 2.78705 15.1077L8.95321 8.94154C9.07774 8.81726 9.17655 8.66964 9.24396 8.50712C9.31137 8.34461 9.34607 8.17039 9.34607 7.99445C9.34607 7.81851 9.31137 7.6443 9.24396 7.48178C9.17655 7.31927 9.07774 7.17165 8.95321 7.04736L2.78705 0.881203C2.27656 0.370715 1.41679 0.370715 0.892867 0.894637Z" fill="#848A99"/>
</svg>
