<svg width="14" height="14" viewBox="0 0 14 14" fill="none" xmlns="http://www.w3.org/2000/svg">
<path d="M8.13118 7.00001L13.1656 1.96561C13.3156 1.8156 13.3999 1.61215 13.3999 1.40001C13.3999 1.18787 13.3156 0.984414 13.1656 0.834407C13.0156 0.684401 12.8121 0.600128 12.6 0.600128C12.3878 0.600128 12.1844 0.684401 12.0344 0.834407L6.99998 5.86881L1.96558 0.834407C1.8913 0.760132 1.80312 0.701213 1.70608 0.661016C1.60903 0.620818 1.50502 0.600128 1.39998 0.600128C1.29494 0.600128 1.19092 0.620818 1.09388 0.661016C0.996831 0.701213 0.908653 0.760132 0.834377 0.834407C0.68437 0.984414 0.600098 1.18787 0.600098 1.40001C0.600098 1.61215 0.68437 1.8156 0.834377 1.96561L5.86878 7.00001L0.834377 12.0344C0.68437 12.1844 0.600098 12.3879 0.600098 12.6C0.600098 12.8121 0.68437 13.0156 0.834377 13.1656C0.984383 13.3156 1.18784 13.3999 1.39998 13.3999C1.61212 13.3999 1.81557 13.3156 1.96558 13.1656L6.99998 8.13121L12.0344 13.1656C12.1085 13.2402 12.1966 13.2993 12.2937 13.3397C12.3908 13.3801 12.4949 13.4008 12.6 13.4008C12.7051 13.4008 12.8092 13.3801 12.9063 13.3397C13.0033 13.2993 13.0915 13.2402 13.1656 13.1656C13.2399 13.0914 13.2989 13.0032 13.3392 12.9062C13.3794 12.8091 13.4001 12.7051 13.4001 12.6C13.4001 12.4949 13.3794 12.3909 13.3392 12.2939C13.2989 12.1968 13.2399 12.1086 13.1656 12.0344L8.13118 7.00001Z" fill="#ABB3C7"/>
</svg>
