<svg width="22" height="22" viewBox="0 0 22 22" fill="none" xmlns="http://www.w3.org/2000/svg">
<path d="M22 11C22 17.0751 17.0751 22 11 22C4.92487 22 0 17.0751 0 11C0 4.92487 4.92487 0 11 0C17.0751 0 22 4.92487 22 11Z" fill="#4CA6A8"/>
<path d="M15.7897 7.73967C15.4157 7.36567 14.7997 7.36567 14.4257 7.73967L9.88273 12.2827L7.95773 10.3577C7.58373 9.98367 6.96773 9.98367 6.59373 10.3577C6.21973 10.7317 6.21973 11.3367 6.59373 11.7217L9.21173 14.3287C9.39873 14.5157 9.64073 14.6037 9.88273 14.6037C10.1357 14.6037 10.3777 14.5157 10.5647 14.3287L15.7897 9.10367C16.1637 8.72967 16.1637 8.12467 15.7897 7.73967Z" fill="white"/>
</svg>
