<svg width="50" height="50" viewBox="0 0 50 50" fill="none" xmlns="http://www.w3.org/2000/svg">
<path d="M49.0729 24.2565H41.4705L46.1562 16.5997C46.3733 16.235 46.2648 15.754 45.8923 15.529C45.5276 15.304 45.0544 15.4204 44.8294 15.785L39.6472 24.2564H34.3644L25.808 15.7075V10.4011L34.2636 5.22677C34.6361 5.00178 34.7447 4.52105 34.5276 4.15642C34.3026 3.79177 33.8215 3.67535 33.4569 3.90035L25.8079 8.58606V0.975729C25.8079 0.549297 25.459 0.200012 25.0322 0.200012C24.6054 0.200012 24.2565 0.549297 24.2565 0.975729V8.58606L16.5997 3.90035C16.2351 3.67535 15.754 3.79177 15.529 4.15642C15.3119 4.52106 15.4204 5.00178 15.7929 5.22677L24.2565 10.4089V15.8468L15.855 24.2564H9.87394L4.69926 15.785C4.47427 15.4204 3.99319 15.304 3.62854 15.529C3.2639 15.754 3.14747 16.2347 3.37247 16.5997L8.05818 24.2565H0.975668C0.54888 24.2565 0.199951 24.6054 0.199951 25.0322C0.199951 25.459 0.54888 25.8079 0.975668 25.8079H8.05069L3.37283 33.4568C2.83462 34.329 4.16141 35.1407 4.69928 34.2636L9.87359 25.8079H15.8547L24.2561 34.2019V40.1751L15.7929 45.3569C15.4205 45.5819 15.3119 46.063 15.529 46.4276C15.754 46.7923 16.2351 46.9083 16.5997 46.6833L24.2565 41.998V49.073C24.2565 49.5076 24.6054 49.8487 25.0322 49.8487C25.459 49.8487 25.808 49.5073 25.808 49.073V41.998L33.4569 46.6833C33.7858 46.889 34.2879 46.8055 34.5276 46.4276C34.7447 46.063 34.6362 45.5819 34.2637 45.3569L25.808 40.1826V34.349L34.3569 25.8079H39.6555L44.8298 34.2636C45.0512 34.6247 45.5241 34.7497 45.8926 34.5193C46.2651 34.2947 46.3737 33.8211 46.1566 33.4565L41.4705 25.8079H49.073C49.5072 25.8079 49.8487 25.459 49.8487 25.0322C49.8487 24.6054 49.5072 24.2565 49.073 24.2565L49.0729 24.2565Z" fill="#ABB3C7"/>
<path d="M17.5255 14.3575C17.5255 16.1072 16.1073 17.5253 14.3577 17.5253C12.6084 17.5253 11.1902 16.1071 11.1902 14.3575C11.1902 12.6082 12.6084 11.1897 14.3577 11.1897C16.1074 11.1897 17.5255 12.6083 17.5255 14.3575Z" fill="#ABB3C7"/>
<path d="M38.8586 14.3575C38.8586 16.1072 37.4403 17.5253 35.691 17.5253C33.9413 17.5253 32.5232 16.1071 32.5232 14.3575C32.5232 12.6082 33.9414 11.1899 35.691 11.1899C37.4403 11.1899 38.8586 12.6082 38.8586 14.3575Z" fill="#ABB3C7"/>
<path d="M17.5255 35.6914C17.5255 37.4407 16.1073 38.859 14.3577 38.859C12.6084 38.859 11.1902 37.4407 11.1902 35.6914C11.1902 33.9418 12.6084 32.5236 14.3577 32.5236C16.1074 32.5236 17.5255 33.9419 17.5255 35.6914Z" fill="#ABB3C7"/>
<path d="M38.8586 35.6905C38.8586 37.4402 37.4403 38.8583 35.691 38.8583C33.9413 38.8583 32.5232 37.4401 32.5232 35.6905C32.5232 33.9412 33.9414 32.5229 35.691 32.5229C37.4403 32.5229 38.8586 33.9412 38.8586 35.6905Z" fill="#ABB3C7"/>
</svg>
