<svg width="24" height="24" viewBox="0 0 24 24" fill="none" xmlns="http://www.w3.org/2000/svg">
<path d="M18.1414 6.07498L13.2581 3.89998C12.5414 3.58331 11.4581 3.58331 10.7414 3.89998L5.85807 6.07498C4.62474 6.62498 4.44141 7.37498 4.44141 7.77498C4.44141 8.17498 4.62474 8.92498 5.85807 9.47498L10.7414 11.65C11.0997 11.8083 11.5497 11.8916 11.9997 11.8916C12.4497 11.8916 12.8997 11.8083 13.2581 11.65L18.1414 9.47498C19.3747 8.92498 19.5581 8.17498 19.5581 7.77498C19.5581 7.37498 19.3831 6.62498 18.1414 6.07498Z" fill="#FF8700"/>
<path d="M12.0003 16.2C11.6836 16.2 11.3669 16.1334 11.0753 16.0084L5.45859 13.5084C4.60026 13.125 3.93359 12.1 3.93359 11.1584C3.93359 10.8167 4.20859 10.5417 4.55026 10.5417C4.89193 10.5417 5.16693 10.8167 5.16693 11.1584C5.16693 11.6084 5.54193 12.1917 5.95859 12.375L11.5753 14.875C11.8419 14.9917 12.1503 14.9917 12.4169 14.875L18.0336 12.375C18.4503 12.1917 18.8253 11.6167 18.8253 11.1584C18.8253 10.8167 19.1003 10.5417 19.4419 10.5417C19.7836 10.5417 20.0586 10.8167 20.0586 11.1584C20.0586 12.0917 19.3919 13.125 18.5336 13.5084L12.9169 16.0084C12.6336 16.1334 12.3169 16.2 12.0003 16.2Z" fill="#FF8700"/>
<path d="M12.0003 20.3334C11.6836 20.3334 11.3669 20.2667 11.0753 20.1417L5.45859 17.6417C4.53359 17.2334 3.93359 16.3084 3.93359 15.2917C3.93359 14.95 4.20859 14.675 4.55026 14.675C4.89193 14.675 5.16693 14.95 5.16693 15.2917C5.16693 15.8167 5.47526 16.2917 5.95859 16.5084L11.5753 19.0084C11.8419 19.125 12.1503 19.125 12.4169 19.0084L18.0336 16.5084C18.5086 16.3 18.8253 15.8167 18.8253 15.2917C18.8253 14.95 19.1003 14.675 19.4419 14.675C19.7836 14.675 20.0586 14.95 20.0586 15.2917C20.0586 16.3084 19.4586 17.225 18.5336 17.6417L12.9169 20.1417C12.6336 20.2667 12.3169 20.3334 12.0003 20.3334Z" fill="#FF8700"/>
</svg>
