<svg width="24" height="24" viewBox="0 0 24 24" fill="none" xmlns="http://www.w3.org/2000/svg">
<path d="M12.018 3.66748C8.98388 3.66748 6.51805 6.13331 6.51805 9.16748V11.8166C6.51805 12.3758 6.27971 13.2283 5.99555 13.705L4.94138 15.4558C4.29055 16.5375 4.73971 17.7383 5.93138 18.1416C9.88221 19.4616 14.1447 19.4616 18.0955 18.1416C19.2047 17.775 19.6905 16.4641 19.0855 15.4558L18.0314 13.705C17.7564 13.2283 17.518 12.3758 17.518 11.8166V9.16748C17.518 6.14248 15.043 3.66748 12.018 3.66748Z" stroke="#C6CFE6" stroke-width="1.3" stroke-miterlimit="10" stroke-linecap="round"/>
<path d="M13.7137 3.93338C13.4295 3.85088 13.1362 3.78671 12.8337 3.75005C11.9537 3.64005 11.1104 3.70421 10.322 3.93338C10.5879 3.25505 11.2479 2.77838 12.0179 2.77838C12.7879 2.77838 13.4479 3.25505 13.7137 3.93338Z" stroke="#C6CFE6" stroke-width="1.3" stroke-miterlimit="10" stroke-linecap="round" stroke-linejoin="round"/>
<path d="M14.7683 18.4716C14.7683 19.9841 13.5308 21.2216 12.0183 21.2216C11.2666 21.2216 10.57 20.91 10.075 20.415C9.57998 19.92 9.26831 19.2233 9.26831 18.4716" stroke="#C6CFE6" stroke-width="1.3" stroke-miterlimit="10"/>
</svg>
