<svg width="50" height="49" viewBox="0 0 50 49" fill="none" xmlns="http://www.w3.org/2000/svg">
<g filter="url(#filter0_d_3004_7970)">
<rect x="6.5" y="2.5" width="37" height="37" rx="18.5" fill="white" stroke="white"/>
<path d="M24.9995 10.5001C22.2485 10.5001 20.012 12.7366 20.012 15.4876C20.012 18.1861 22.1225 20.3701 24.8735 20.4646C24.9575 20.4541 25.0415 20.4541 25.1045 20.4646C25.1255 20.4646 25.136 20.4646 25.157 20.4646C25.1675 20.4646 25.1675 20.4646 25.178 20.4646C27.866 20.3701 29.9765 18.1861 29.987 15.4876C29.987 12.7366 27.7505 10.5001 24.9995 10.5001Z" fill="#1B1E26"/>
<path d="M30.3349 23.2575C27.4054 21.3045 22.6279 21.3045 19.6774 23.2575C18.3439 24.15 17.6089 25.3575 17.6089 26.649C17.6089 27.9405 18.3439 29.1375 19.6669 30.0195C21.1369 31.0065 23.0689 31.5 25.0009 31.5C26.9329 31.5 28.8649 31.0065 30.3349 30.0195C31.6579 29.127 32.3929 27.93 32.3929 26.628C32.3824 25.3365 31.6579 24.1395 30.3349 23.2575Z" fill="#1B1E26"/>
</g>
<defs>
<filter id="filter0_d_3004_7970" x="-1" y="-1" width="52" height="52" filterUnits="userSpaceOnUse" color-interpolation-filters="sRGB">
<feFlood flood-opacity="0" result="BackgroundImageFix"/>
<feColorMatrix in="SourceAlpha" type="matrix" values="0 0 0 0 0 0 0 0 0 0 0 0 0 0 0 0 0 0 127 0" result="hardAlpha"/>
<feMorphology radius="2" operator="erode" in="SourceAlpha" result="effect1_dropShadow_3004_7970"/>
<feOffset dy="4"/>
<feGaussianBlur stdDeviation="4"/>
<feColorMatrix type="matrix" values="0 0 0 0 0 0 0 0 0 0.25098 0 0 0 0 0.501961 0 0 0 0.15 0"/>
<feBlend mode="normal" in2="BackgroundImageFix" result="effect1_dropShadow_3004_7970"/>
<feBlend mode="normal" in="SourceGraphic" in2="effect1_dropShadow_3004_7970" result="shape"/>
</filter>
</defs>
</svg>
