<svg width="201" height="16" viewBox="0 0 201 16" fill="none" xmlns="http://www.w3.org/2000/svg">
<path d="M179.42 5.216C180.276 5.216 180.984 5.496 181.544 6.056C182.112 6.608 182.396 7.308 182.396 8.156C182.396 9.02 182.1 9.736 181.508 10.304C180.924 10.864 180.172 11.144 179.252 11.144C178.212 11.144 177.264 10.788 176.408 10.076L176.972 9.14C177.692 9.74 178.436 10.04 179.204 10.04C179.78 10.04 180.256 9.864 180.632 9.512C181 9.152 181.184 8.704 181.184 8.168C181.184 7.64 181.004 7.2 180.644 6.848C180.284 6.488 179.828 6.308 179.276 6.308C178.636 6.308 178.092 6.544 177.644 7.016L176.852 6.56L177.356 2.132H181.796V3.2H178.28L177.98 5.564C178.428 5.332 178.908 5.216 179.42 5.216ZM187.631 7.172L185.159 9.896H188.975V11H183.443V10.004L186.287 6.956C186.799 6.42 187.163 5.984 187.379 5.648C187.595 5.304 187.703 4.948 187.703 4.58C187.703 4.148 187.547 3.792 187.235 3.512C186.931 3.224 186.551 3.08 186.095 3.08C185.359 3.08 184.643 3.416 183.947 4.088L183.287 3.236C184.143 2.396 185.087 1.976 186.119 1.976C186.927 1.976 187.587 2.22 188.099 2.708C188.611 3.196 188.867 3.84 188.867 4.64C188.867 5.424 188.455 6.268 187.631 7.172ZM193.818 5.708C193.37 6.132 192.842 6.344 192.234 6.344C191.618 6.344 191.086 6.132 190.638 5.708C190.198 5.276 189.978 4.76 189.978 4.16C189.978 3.552 190.198 3.04 190.638 2.624C191.078 2.192 191.61 1.976 192.234 1.976C192.842 1.976 193.37 2.192 193.818 2.624C194.258 3.04 194.478 3.552 194.478 4.16C194.478 4.76 194.258 5.276 193.818 5.708ZM192.15 11H190.95L197.478 2.132H198.69L192.15 11ZM192.234 2.864C191.858 2.864 191.546 2.988 191.298 3.236C191.05 3.484 190.926 3.792 190.926 4.16C190.926 4.528 191.05 4.84 191.298 5.096C191.554 5.344 191.866 5.468 192.234 5.468C192.602 5.468 192.91 5.344 193.158 5.096C193.414 4.84 193.542 4.528 193.542 4.16C193.542 3.792 193.414 3.484 193.158 3.236C192.91 2.988 192.602 2.864 192.234 2.864ZM195.87 10.508C195.43 10.092 195.21 9.584 195.21 8.984C195.21 8.384 195.43 7.868 195.87 7.436C196.31 7.004 196.842 6.788 197.466 6.788C198.09 6.788 198.622 7.004 199.062 7.436C199.51 7.868 199.734 8.384 199.734 8.984C199.734 9.576 199.51 10.084 199.062 10.508C198.614 10.932 198.082 11.144 197.466 11.144C196.85 11.144 196.318 10.932 195.87 10.508ZM197.466 10.268C197.842 10.268 198.154 10.148 198.402 9.908C198.658 9.66 198.786 9.352 198.786 8.984C198.786 8.608 198.658 8.292 198.402 8.036C198.154 7.78 197.842 7.652 197.466 7.652C197.098 7.652 196.786 7.78 196.53 8.036C196.282 8.292 196.158 8.608 196.158 8.984C196.158 9.344 196.286 9.648 196.542 9.896C196.798 10.144 197.106 10.268 197.466 10.268Z" fill="white"/>
<rect y="6" width="168" height="4" rx="2" fill="#D8DFEB"/>
<rect y="6" width="96" height="4" rx="2" fill="#FF8700"/>
<rect y="6" width="96" height="4" rx="2" fill="#FF8700"/>
</svg>
